<svg width="229" height="318" viewBox="0 0 229 318" fill="none" xmlns="http://www.w3.org/2000/svg">
<g filter="url(#filter0_i_14_911)">
<path d="M0 30C0 13.4315 13.4315 0 30 0H199C215.569 0 229 13.4315 229 30V288C229 304.569 215.569 318 199 318H30C13.4315 318 0 304.569 0 288V30Z" fill="white" fill-opacity="0.06"/>
</g>
<path d="M30 1H199C215.016 1 228 13.9837 228 30V288C228 304.016 215.016 317 199 317H30C13.9837 317 1 304.016 1 288V30C1 13.9837 13.9837 1 30 1Z" stroke="#5FFFCA" stroke-opacity="0.92" stroke-width="2"/>
<g filter="url(#filter1_i_14_911)">
<g filter="url(#filter2_bd_14_911)">
<rect x="14.2015" y="13" width="200.597" height="55" rx="20" fill="url(#paint0_linear_14_911)"/>
<rect x="15.2015" y="14" width="198.597" height="53" rx="19" stroke="url(#paint1_linear_14_911)" stroke-width="2"/>
</g>
</g>
<defs>
<filter id="filter0_i_14_911" x="0" y="0" width="229" height="322" filterUnits="userSpaceOnUse" color-interpolation-filters="sRGB">
<feFlood flood-opacity="0" result="BackgroundImageFix"/>
<feBlend mode="normal" in="SourceGraphic" in2="BackgroundImageFix" result="shape"/>
<feColorMatrix in="SourceAlpha" type="matrix" values="0 0 0 0 0 0 0 0 0 0 0 0 0 0 0 0 0 0 127 0" result="hardAlpha"/>
<feOffset dy="4"/>
<feGaussianBlur stdDeviation="20"/>
<feComposite in2="hardAlpha" operator="arithmetic" k2="-1" k3="1"/>
<feColorMatrix type="matrix" values="0 0 0 0 0 0 0 0 0 0 0 0 0 0 0 0 0 0 0.25 0"/>
<feBlend mode="normal" in2="shape" result="effect1_innerShadow_14_911"/>
</filter>
<filter id="filter1_i_14_911" x="14.2015" y="10" width="200.597" height="58" filterUnits="userSpaceOnUse" color-interpolation-filters="sRGB">
<feFlood flood-opacity="0" result="BackgroundImageFix"/>
<feBlend mode="normal" in="SourceGraphic" in2="BackgroundImageFix" result="shape"/>
<feColorMatrix in="SourceAlpha" type="matrix" values="0 0 0 0 0 0 0 0 0 0 0 0 0 0 0 0 0 0 127 0" result="hardAlpha"/>
<feOffset dy="-3"/>
<feGaussianBlur stdDeviation="10"/>
<feComposite in2="hardAlpha" operator="arithmetic" k2="-1" k3="1"/>
<feColorMatrix type="matrix" values="0 0 0 0 0 0 0 0 0 0 0 0 0 0 0 0 0 0 0.16 0"/>
<feBlend mode="normal" in2="shape" result="effect1_innerShadow_14_911"/>
</filter>
<filter id="filter2_bd_14_911" x="-5.79846" y="-7" width="240.597" height="95" filterUnits="userSpaceOnUse" color-interpolation-filters="sRGB">
<feFlood flood-opacity="0" result="BackgroundImageFix"/>
<feGaussianBlur in="BackgroundImageFix" stdDeviation="10"/>
<feComposite in2="SourceAlpha" operator="in" result="effect1_backgroundBlur_14_911"/>
<feColorMatrix in="SourceAlpha" type="matrix" values="0 0 0 0 0 0 0 0 0 0 0 0 0 0 0 0 0 0 127 0" result="hardAlpha"/>
<feOffset dy="2"/>
<feGaussianBlur stdDeviation="1"/>
<feComposite in2="hardAlpha" operator="out"/>
<feColorMatrix type="matrix" values="0 0 0 0 0 0 0 0 0 0 0 0 0 0 0 0 0 0 0.25 0"/>
<feBlend mode="normal" in2="effect1_backgroundBlur_14_911" result="effect2_dropShadow_14_911"/>
<feBlend mode="normal" in="SourceGraphic" in2="effect2_dropShadow_14_911" result="shape"/>
</filter>
<linearGradient id="paint0_linear_14_911" x1="87.1459" y1="-3.5" x2="153.628" y2="111.046" gradientUnits="userSpaceOnUse">
<stop stop-color="#B6116B"/>
<stop offset="1" stop-color="#3B1578"/>
</linearGradient>
<linearGradient id="paint1_linear_14_911" x1="87.2761" y1="13" x2="106.911" y2="48.8289" gradientUnits="userSpaceOnUse">
<stop stop-color="#FF53C0"/>
<stop offset="1" stop-color="#FF53C0" stop-opacity="0"/>
</linearGradient>
</defs>
</svg>
