<svg width="21" height="22" viewBox="0 0 21 22" fill="none" xmlns="http://www.w3.org/2000/svg">
<path id="edit" d="M7.53022 17.069H7.74475L7.89258 16.9135L13.5954 10.9155L13.9227 10.5712L13.5956 10.2267L11.5342 8.05534L11.1718 7.67369L10.8092 8.05508L5.10639 14.0531L4.96875 14.1979V14.3976V16.569V17.069H5.46875H7.53022ZM13.8429 9.8909L14.2054 10.2727L14.568 9.89102L16.1396 8.23673L16.4667 7.89246L16.1397 7.54809L14.0783 5.37676L13.7158 4.99495L13.3532 5.37664L11.7815 7.03093L11.4545 7.3752L11.7814 7.71957L13.8429 9.8909ZM6.5 0.775864H14.75C17.8621 0.775864 20.4375 3.45021 20.4375 6.79311V15.4828C20.4375 18.8257 17.8621 21.5 14.75 21.5H1.34375C1.21148 21.5 1.07902 21.4449 0.977153 21.3376C0.874447 21.2294 0.8125 21.0774 0.8125 20.9138V6.79311C0.8125 3.45021 3.38788 0.775864 6.5 0.775864Z" fill="#60FFDD" stroke="url(#paint0_linear_5_10213)"/>
<defs>
<linearGradient id="paint0_linear_5_10213" x1="0.3125" y1="0.275864" x2="11.5084" y2="21.5348" gradientUnits="userSpaceOnUse">
<stop stop-color="white"/>
<stop offset="1" stop-color="white" stop-opacity="0"/>
</linearGradient>
</defs>
</svg>
